PathFileType	4	(X/Y/Z)	/Users/niels/Desktop/University/Third Semester/Perception and Action/Exam/Gymnastics Motion Tracking/Code for Gym Tracking/Analyzed Data/Webcam_Backflip/id19_3_trajectory_Sports2D/id19_3_trajectory_Sports2D_px_person00.trc
DataRate	CameraRate	NumFrames	NumMarkers	Units	OrigDataRate	OrigDataStartFrame	OrigNumFrames
29.714285714285715	29.714285714285715	11	22	m	29.714285714285715	52	105
Frame#	Time	Hip			RHip			RKnee			RAnkle			RBigToe			RSmallToe			RHeel			LHip			LKnee			LAnkle			LBigToe			LSmallToe			LHeel			Neck			Head			Nose			RShoulder			RElbow			RWrist			LShoulder			LElbow			LWrist		
		X1	Y1	Z1	X2	Y2	Z2	X3	Y3	Z3	X4	Y4	Z4	X5	Y5	Z5	X6	Y6	Z6	X7	Y7	Z7	X8	Y8	Z8	X9	Y9	Z9	X10	Y10	Z10	X11	Y11	Z11	X12	Y12	Z12	X13	Y13	Z13	X14	Y14	Z14	X15	Y15	Z15	X16	Y16	Z16	X17	Y17	Z17	X18	Y18	Z18	X19	Y19	Z19	X20	Y20	Z20	X21	Y21	Z21	X22	Y22	Z22
52	1.75	0.9550480242775486	-0.7089553775969986	0.0	0.9583607174180258	-0.7105533409238469	0.0	0.9898853678349543	-0.8308122448183617	0.0	0.9698668808016991	-0.9621066669171249	0.0	0.9983261223802332	-0.9938413717755897	0.0	0.9900207081705873	-0.9958115009421166	0.0	0.9593291054813844	-0.9774348820628551	0.0	0.9572380442888389	-0.7057604506887879	0.0	0.985261128958336	-0.8288784103020966	0.0	0.9706083643557183	-0.9554686090239484	0.0	1.0031834321704052	-0.988621326846947	0.0	0.9971840154638432	-0.9919377892393982	0.0	0.9569788019675606	-0.971627362942972	0.0	0.8741650965957095	-0.5695781195395845	0.0	0.827260763872743	-0.48866237669884577	0.0	0.868904982665725	-0.5132218500121938	0.0	0.8723500647933341	-0.5734453362302668	0.0	0.877558351323089	-0.48807747690665126	0.0	0.8604790080440625	-0.4147659219214082	0.0	0.873821331406245	-0.5707679067934227	0.0	0.8766249271307366	-0.4905464513984309	0.0	0.8604623881941738	-0.4202188910745934	0.0
53	1.783653846153846	0.9519198839540571	-0.6701118917527636	0.0	0.9570032101858933	-0.6722076067897407	0.0	1.0017384287900837	-0.7804931821251484	0.0	0.9803881496435974	-0.9167009730799994	0.0	1.01046540557529	-0.9556966217452989	0.0	1.0021150591930268	-0.9579155045102288	0.0	0.9694832927438439	-0.9337301646592656	0.0	0.9552936246259346	-0.6669547681494304	0.0	0.997092440854175	-0.7784013187762617	0.0	0.981844408447443	-0.9085899329261962	0.0	1.0159791054385254	-0.9485810772662023	0.0	1.0094968124407313	-0.9520538127450249	0.0	0.9688025209389781	-0.9274873445614346	0.0	0.8583566824757438	-0.5416665543968961	0.0	0.8038834892103912	-0.4629330697067502	0.0	0.8459309904206812	-0.4854476088525311	0.0	0.8555496402383755	-0.5440130955470214	0.0	0.8398225888618825	-0.4559454445843414	0.0	0.8076492041096102	-0.38614312550814045	0.0	0.8577308127346411	-0.5419768206914543	0.0	0.8395337285857589	-0.45984476887696546	0.0	0.8095542987433494	-0.3935847348226933	0.0
54	1.8173076923076923	0.9461322912440011	-0.6326117049094401	0.0	0.9523669855585948	-0.6349758133779593	0.0	1.0159216012414738	-0.7228078021739365	0.0	0.995918989823772	-0.8619795281853339	0.0	1.0303036805134453	-0.9045653761063691	0.0	1.021997499618099	-0.907544660233981	0.0	0.9850147394187406	-0.8796488565297587	0.0	0.9501966107090197	-0.6293191724058745	0.0	1.011024849968551	-0.7206144734077463	0.0	0.9979361139551429	-0.8526351695350232	0.0	1.0355422250480928	-0.8961920291272095	0.0	1.028707889105233	-0.8993949052273968	0.0	0.985964442093189	-0.8734730683926819	0.0	0.8418850892122752	-0.513787654375753	0.0	0.7822932027246854	-0.43781389824525496	0.0	0.8241121328288334	-0.459229610845056	0.0	0.8382555374303813	-0.5151710714200558	0.0	0.8082468241276275	-0.42920410389961183	0.0	0.7652084352523968	-0.3640100683489267	0.0	0.8414109148856407	-0.5137027313147902	0.0	0.8084306828614995	-0.43339244429950907	0.0	0.7684462049512747	-0.37262901230987505	0.0
55	1.8509615384615383	0.9388385722226528	-0.5992735952334743	0.0	0.9450565230554532	-0.601878062252869	0.0	1.0278923188888924	-0.6603801233496703	0.0	1.0154061069393405	-0.7990049512856463	0.0	1.0557208877346516	-0.8393480144983425	0.0	1.048041418145308	-0.843584491114306	0.0	1.005715779512186	-0.8165932986874236	0.0	0.9427346363392238	-0.5960242884502023	0.0	1.0227167866745877	-0.658197865956621	0.0	1.0177770955142418	-0.7889238143554534	0.0	1.0598198947993918	-0.8303230081620286	0.0	1.0533640817399053	-0.8328514731879358	0.0	1.0078309508767729	-0.8107229423927765	0.0	0.8248521324915701	-0.48819513151039573	0.0	0.7623633355834725	-0.41533137664954384	0.0	0.8042641595008957	-0.4357915029568979	0.0	0.8208993990561315	-0.4891763596193342	0.0	0.7857155877934774	-0.4079145680078911	0.0	0.7366912416468647	-0.3469330248477573	0.0	0.8248957960280429	-0.48813863945943664	0.0	0.7860943742872796	-0.411454197748291	0.0	0.7403476543048222	-0.3558623636373837	0.0
56	1.8846153846153846	0.9309153856847227	-0.5713034797397322	0.0	0.9360125197600927	-0.5742049329412429	0.0	1.0329853943577803	-0.5962130083277959	0.0	1.0362657051648259	-0.7290678148271886	0.0	1.0824328155893954	-0.7599357551565438	0.0	1.0762655884164345	-0.7660112546423822	0.0	1.0296159710284396	-0.746327445906622	0.0	0.9337000042344998	-0.5682095773489211	0.0	1.0276292114409924	-0.5940708239898808	0.0	1.0388394258009912	-0.718510928351575	0.0	1.0854172277298193	-0.7504010664040809	0.0	1.0799808983994508	-0.7521071976271331	0.0	1.0322290791830229	-0.7405600335540049	0.0	0.8076898494881904	-0.46670684735407575	0.0	0.7442553452596153	-0.3966819310227317	0.0	0.787290766211405	-0.415854273690351	0.0	0.8043246952182559	-0.4678581190477992	0.0	0.7734723618546601	-0.3921612095665331	0.0	0.7233829582125741	-0.3341768092775167	0.0	0.8084627590439808	-0.4670773103885994	0.0	0.7736693442596737	-0.39459824788893805	0.0	0.7265331903219823	-0.3427599757327334	0.0
57	1.9182692307692306	0.9229340287471419	-0.5483629550100674	0.0	0.926570902758548	-0.5516033372481846	0.0	1.0278520021136595	-0.5336011837010122	0.0	1.0544865783766704	-0.6537420972557153	0.0	1.1038630385452382	-0.6682680989045267	0.0	1.1001394611214517	-0.6766432658040603	0.0	1.0528048573756894	-0.6705196717294921	0.0	0.9239891109621083	-0.5451520392858086	0.0	1.02240422706455	-0.5315622508286847	0.0	1.0569822282086516	-0.6427722206777484	0.0	1.1065921374277208	-0.6583530802218404	0.0	1.102252199734046	-0.6593834185118099	0.0	1.0553648311471149	-0.6644968553746142	0.0	0.7915376970913638	-0.45068889480516233	0.0	0.7286828827472542	-0.3827746641108046	0.0	0.7738964863195095	-0.40039960626290644	0.0	0.7897464391031837	-0.4524034541859406	0.0	0.7712361399230419	-0.38232554732161206	0.0	0.7242571732076172	-0.3256857905484517	0.0	0.7930446313967254	-0.45181367822808144	0.0	0.7708201919010393	-0.3836913779299451	0.0	0.726216859297391	-0.3336106104990758	0.0
58	1.9519230769230769	0.9159977986264788	-0.5293276834156246	0.0	0.9186498948948313	-0.5328473663796374	0.0	1.0112853025372355	-0.4760758326994007	0.0	1.065140915551469	-0.575158755412209	0.0	1.1123534065226883	-0.5692931019353397	0.0	1.1118502079881156	-0.579789738646465	0.0	1.0697596776215776	-0.5909082247156757	0.0	0.9150743348106017	-0.5255624717683335	0.0	1.005860703519717	-0.4743353212381892	0.0	1.0669477290586098	-0.5642435955533414	0.0	1.1157100145434884	-0.5597480661352215	0.0	1.112240266799896	-0.5604479408385586	0.0	1.071920504019947	-0.5846537830193844	0.0	0.7780098861886474	-0.4410285419033524	0.0	0.7163432721595338	-0.37485320781245035	0.0	0.7642065592687569	-0.39076926770689013	0.0	0.778435484779428	-0.4433401642383375	0.0	0.7775246909230311	-0.3788500398054004	0.0	0.736547246416464	-0.3217009030504654	0.0	0.7801777975458002	-0.4431898058676471	0.0	0.776119456847469	-0.37949338025073553	0.0	0.7369536270801422	-0.3289725710535189	0.0
59	1.985576923076923	0.9114489512197849	-0.5126833447506307	0.0	0.9139255505801301	-0.5161896879312782	0.0	0.9843166804225291	-0.42715372972820853	0.0	1.0633286572798246	-0.49655361323845276	0.0	1.101538144140853	-0.470797767937369	0.0	1.104652288828372	-0.4823032081537739	0.0	1.07431352342736	-0.5101786571827457	0.0	0.908436260477996	-0.5081987504648131	0.0	0.9790956635432804	-0.42589535367232106	0.0	1.0636456315266054	-0.4868794146641183	0.0	1.10581878646146	-0.46295488483991254	0.0	1.1031776311222035	-0.46378299812887724	0.0	1.0758017247953926	-0.5044084221052758	0.0	0.768385808730632	-0.4381177812154264	0.0	0.7074258755710598	-0.3744506372663023	0.0	0.7575793072942764	-0.38803459275955987	0.0	0.7713477502259465	-0.4406403788777115	0.0	0.7899904069714992	-0.3815416746282502	0.0	0.7563774839750853	-0.32224059581488695	0.0	0.7713306868396876	-0.44148632092411555	0.0	0.7873224982319442	-0.38203075372801387	0.0	0.7550720519670407	-0.329140235607703	0.0
60	2.019230769230769	0.9096797167690753	-0.49658947542180304	0.0	0.9127040962962836	-0.49957693754371635	0.0	0.9497404591376197	-0.3897350230400326	0.0	1.045468943196063	-0.422730997069361	0.0	1.0685042865263652	-0.38210510660946284	0.0	1.0750275937002387	-0.3928603848485462	0.0	1.061311252524319	-0.43286953275094325	0.0	0.904530760568966	-0.49166869056035106	0.0	0.9447973221105506	-0.38896669798373046	0.0	1.0436833979634992	-0.41564063969437814	0.0	1.0734113728784844	-0.3771134591849545	0.0	1.071862906688432	-0.37842642888406275	0.0	1.0618879672575612	-0.4285549455025555	0.0	0.7631302286660372	-0.4418274456529732	0.0	0.7017630402857683	-0.3829223967741457	0.0	0.7528699189459923	-0.39260284629641007	0.0	0.7689640190850173	-0.44381349693845173	0.0	0.805857150140418	-0.38903126777555763	0.0	0.7791648771558558	-0.3267387163301547	0.0	0.7673378029139267	-0.4462674458010385	0.0	0.8017005249136665	-0.39009707915843855	0.0	0.7760858715550625	-0.33377352033065666	0.0
61	2.0528846153846154	0.9097267253429049	-0.47931128487265834	0.0	0.9136689404341809	-0.4813334242024744	0.0	0.9112785583050668	-0.3654716753375863	0.0	1.0105525270548867	-0.3596674636400944	0.0	1.0147384933532764	-0.3122123950679771	0.0	1.0238121927493533	-0.32045739112040894	0.0	1.028471094608945	-0.36521515091205775	0.0	0.9025618255178466	-0.47452395808663245	0.0	0.9064564482300436	-0.36505639769750425	0.0	1.0064765535408096	-0.355725976252338	0.0	1.0195882872728752	-0.3101422266874561	0.0	1.0195052770148891	-0.3120053293020678	0.0	1.0280367106539887	-0.3627017933274461	0.0	0.7623078846254825	-0.4514371352415458	0.0	0.6994686417267227	-0.4009512083984981	0.0	0.7492293753811957	-0.40440488317676543	0.0	0.7714463273251049	-0.45193764045173335	0.0	0.8224332181327991	-0.3989688255013648	0.0	0.8000814248564415	-0.3342379508214335	0.0	0.7685565726286147	-0.456390115551906	0.0	0.816679650650639	-0.40123573331792667	0.0	0.7954412328860946	-0.3420152378689113	0.0
62	2.0865384615384612	0.9097056544774117	-0.46001422409122866	0.0	0.9143916205907995	-0.4609689156064981	0.0	0.872747264389688	-0.35473061542052853	0.0	0.9607777430418061	-0.3131745316779561	0.0	0.9456816133279582	-0.26790463574849127	0.0	0.956013170709892	-0.2724047041222946	0.0	0.9775827171084756	-0.31358848562743963	0.0	0.9009269305126252	-0.4559707623009901	0.0	0.8678237363191805	-0.354472449359815	0.0	0.9545065572937632	-0.3118181418135198	0.0	0.949506854357464	-0.26771507946101397	0.0	0.9510614562162684	-0.2699773635686679	0.0	0.9761733762483218	-0.31229059750116206	0.0	0.7662252640019743	-0.46564180628314883	0.0	0.7015617390222431	-0.4280622152810653	0.0	0.746965022740687	-0.4230522405972272	0.0	0.7788633219770845	-0.463631925863974	0.0	0.8374566541712517	-0.4088578420941225	0.0	0.8148914729108133	-0.3440834615374535	0.0	0.7752522061914104	-0.4701125481946807	0.0	0.8304524522157136	-0.4123855734498449	0.0	0.8095516452729271	-0.35307475172634156	0.0
